<mxfile host="Electron" modified="2024-04-29T06:16:45.682Z" agent="Mozilla/5.0 (Macintosh; Intel Mac OS X 10_15_7) AppleWebKit/537.36 (KHTML, like Gecko) draw.io/24.2.5 Chrome/120.0.6099.109 Electron/28.1.0 Safari/537.36" etag="yWV9HpPdN1oxNtVM-euN" version="24.2.5" type="device">
  <diagram name="第 1 页" id="uKlGg8P8eyeJLwApAIIl">
    <mxGraphModel dx="1434" dy="907" grid="1" gridSize="10" guides="1" tooltips="1" connect="1" arrows="1" fold="1" page="1" pageScale="1" pageWidth="827" pageHeight="1169" math="0" shadow="0">
      <root>
        <mxCell id="0" />
        <mxCell id="1" parent="0" />
        <mxCell id="UEzdhy79cI3JfbTJyNad-9" style="rounded=0;orthogonalLoop=1;jettySize=auto;html=1;strokeWidth=3;fontSize=24;" parent="1" source="UEzdhy79cI3JfbTJyNad-1" target="UEzdhy79cI3JfbTJyNad-2" edge="1">
          <mxGeometry relative="1" as="geometry" />
        </mxCell>
        <mxCell id="UEzdhy79cI3JfbTJyNad-10" style="rounded=0;orthogonalLoop=1;jettySize=auto;html=1;strokeWidth=3;fontSize=24;" parent="1" source="UEzdhy79cI3JfbTJyNad-1" target="UEzdhy79cI3JfbTJyNad-6" edge="1">
          <mxGeometry relative="1" as="geometry" />
        </mxCell>
        <mxCell id="UEzdhy79cI3JfbTJyNad-1" value="5" style="ellipse;whiteSpace=wrap;html=1;aspect=fixed;fontSize=24;" parent="1" vertex="1">
          <mxGeometry x="620" width="60" height="60" as="geometry" />
        </mxCell>
        <mxCell id="UEzdhy79cI3JfbTJyNad-7" style="rounded=0;orthogonalLoop=1;jettySize=auto;html=1;strokeWidth=3;fontSize=24;" parent="1" source="UEzdhy79cI3JfbTJyNad-2" target="UEzdhy79cI3JfbTJyNad-3" edge="1">
          <mxGeometry relative="1" as="geometry" />
        </mxCell>
        <mxCell id="UEzdhy79cI3JfbTJyNad-8" style="rounded=0;orthogonalLoop=1;jettySize=auto;html=1;strokeWidth=3;fontSize=24;" parent="1" source="UEzdhy79cI3JfbTJyNad-2" target="UEzdhy79cI3JfbTJyNad-4" edge="1">
          <mxGeometry relative="1" as="geometry" />
        </mxCell>
        <mxCell id="UEzdhy79cI3JfbTJyNad-2" value="2" style="ellipse;whiteSpace=wrap;html=1;aspect=fixed;fontSize=24;" parent="1" vertex="1">
          <mxGeometry x="500" y="80" width="60" height="60" as="geometry" />
        </mxCell>
        <mxCell id="UEzdhy79cI3JfbTJyNad-3" value="1" style="ellipse;whiteSpace=wrap;html=1;aspect=fixed;fontSize=24;" parent="1" vertex="1">
          <mxGeometry x="440" y="160" width="60" height="60" as="geometry" />
        </mxCell>
        <mxCell id="UEzdhy79cI3JfbTJyNad-4" value="4" style="ellipse;whiteSpace=wrap;html=1;aspect=fixed;fontSize=24;" parent="1" vertex="1">
          <mxGeometry x="560" y="160" width="60" height="60" as="geometry" />
        </mxCell>
        <mxCell id="UEzdhy79cI3JfbTJyNad-5" value="6" style="ellipse;whiteSpace=wrap;html=1;aspect=fixed;fontSize=24;" parent="1" vertex="1">
          <mxGeometry x="680" y="160" width="60" height="60" as="geometry" />
        </mxCell>
        <mxCell id="UEzdhy79cI3JfbTJyNad-11" style="rounded=0;orthogonalLoop=1;jettySize=auto;html=1;strokeWidth=3;fontSize=24;" parent="1" source="UEzdhy79cI3JfbTJyNad-6" target="UEzdhy79cI3JfbTJyNad-5" edge="1">
          <mxGeometry relative="1" as="geometry" />
        </mxCell>
        <mxCell id="UEzdhy79cI3JfbTJyNad-6" value="7" style="ellipse;whiteSpace=wrap;html=1;aspect=fixed;fontSize=24;" parent="1" vertex="1">
          <mxGeometry x="740" y="80" width="60" height="60" as="geometry" />
        </mxCell>
        <mxCell id="VMoU9e_8NLVnZtbJIWxW-1" style="rounded=0;orthogonalLoop=1;jettySize=auto;html=1;strokeWidth=3;fontSize=24;" parent="1" source="VMoU9e_8NLVnZtbJIWxW-3" target="VMoU9e_8NLVnZtbJIWxW-6" edge="1">
          <mxGeometry relative="1" as="geometry" />
        </mxCell>
        <mxCell id="VMoU9e_8NLVnZtbJIWxW-2" style="rounded=0;orthogonalLoop=1;jettySize=auto;html=1;strokeWidth=3;fontSize=24;" parent="1" source="VMoU9e_8NLVnZtbJIWxW-3" target="VMoU9e_8NLVnZtbJIWxW-11" edge="1">
          <mxGeometry relative="1" as="geometry" />
        </mxCell>
        <mxCell id="VMoU9e_8NLVnZtbJIWxW-3" value="5" style="ellipse;whiteSpace=wrap;html=1;aspect=fixed;fontSize=24;" parent="1" vertex="1">
          <mxGeometry x="180" width="60" height="60" as="geometry" />
        </mxCell>
        <mxCell id="VMoU9e_8NLVnZtbJIWxW-4" style="rounded=0;orthogonalLoop=1;jettySize=auto;html=1;strokeWidth=3;fontSize=24;" parent="1" source="VMoU9e_8NLVnZtbJIWxW-6" target="VMoU9e_8NLVnZtbJIWxW-7" edge="1">
          <mxGeometry relative="1" as="geometry" />
        </mxCell>
        <mxCell id="VMoU9e_8NLVnZtbJIWxW-5" style="rounded=0;orthogonalLoop=1;jettySize=auto;html=1;strokeWidth=3;fontSize=24;" parent="1" source="VMoU9e_8NLVnZtbJIWxW-6" target="VMoU9e_8NLVnZtbJIWxW-8" edge="1">
          <mxGeometry relative="1" as="geometry" />
        </mxCell>
        <mxCell id="VMoU9e_8NLVnZtbJIWxW-6" value="2" style="ellipse;whiteSpace=wrap;html=1;aspect=fixed;fontSize=24;" parent="1" vertex="1">
          <mxGeometry x="60" y="80" width="60" height="60" as="geometry" />
        </mxCell>
        <mxCell id="VMoU9e_8NLVnZtbJIWxW-7" value="1" style="ellipse;whiteSpace=wrap;html=1;aspect=fixed;fontSize=24;" parent="1" vertex="1">
          <mxGeometry y="160" width="60" height="60" as="geometry" />
        </mxCell>
        <mxCell id="VMoU9e_8NLVnZtbJIWxW-8" value="4" style="ellipse;whiteSpace=wrap;html=1;aspect=fixed;fontSize=24;" parent="1" vertex="1">
          <mxGeometry x="120" y="160" width="60" height="60" as="geometry" />
        </mxCell>
        <mxCell id="VMoU9e_8NLVnZtbJIWxW-9" value="6" style="ellipse;whiteSpace=wrap;html=1;aspect=fixed;fontSize=24;" parent="1" vertex="1">
          <mxGeometry x="240" y="160" width="60" height="60" as="geometry" />
        </mxCell>
        <mxCell id="VMoU9e_8NLVnZtbJIWxW-10" style="rounded=0;orthogonalLoop=1;jettySize=auto;html=1;strokeWidth=3;fontSize=24;" parent="1" source="VMoU9e_8NLVnZtbJIWxW-11" target="VMoU9e_8NLVnZtbJIWxW-9" edge="1">
          <mxGeometry relative="1" as="geometry" />
        </mxCell>
        <mxCell id="VMoU9e_8NLVnZtbJIWxW-11" value="7" style="ellipse;whiteSpace=wrap;html=1;aspect=fixed;fontSize=24;" parent="1" vertex="1">
          <mxGeometry x="300" y="80" width="60" height="60" as="geometry" />
        </mxCell>
        <mxCell id="VMoU9e_8NLVnZtbJIWxW-12" value="&lt;font style=&quot;font-size: 24px;&quot;&gt;Search for 8&lt;/font&gt;" style="text;html=1;strokeColor=none;fillColor=none;align=center;verticalAlign=middle;whiteSpace=wrap;rounded=0;" parent="1" vertex="1">
          <mxGeometry x="350" y="40" width="140" height="30" as="geometry" />
        </mxCell>
        <mxCell id="VMoU9e_8NLVnZtbJIWxW-13" value="" style="curved=1;endArrow=classic;html=1;rounded=0;strokeWidth=3;strokeColor=#FF0000;" parent="1" edge="1">
          <mxGeometry width="50" height="50" relative="1" as="geometry">
            <mxPoint x="170" y="20" as="sourcePoint" />
            <mxPoint x="30" y="140" as="targetPoint" />
            <Array as="points">
              <mxPoint x="50" y="30" />
            </Array>
          </mxGeometry>
        </mxCell>
        <mxCell id="VMoU9e_8NLVnZtbJIWxW-14" value="" style="curved=1;endArrow=classic;html=1;rounded=0;strokeWidth=3;strokeColor=#FF0000;" parent="1" edge="1">
          <mxGeometry width="50" height="50" relative="1" as="geometry">
            <mxPoint x="70" y="200" as="sourcePoint" />
            <mxPoint x="110" y="200" as="targetPoint" />
            <Array as="points">
              <mxPoint x="90" y="120" />
            </Array>
          </mxGeometry>
        </mxCell>
        <mxCell id="VMoU9e_8NLVnZtbJIWxW-15" value="" style="curved=1;endArrow=classic;html=1;rounded=0;strokeWidth=3;strokeColor=#FF0000;" parent="1" edge="1">
          <mxGeometry width="50" height="50" relative="1" as="geometry">
            <mxPoint x="190" y="170" as="sourcePoint" />
            <mxPoint x="230" y="160" as="targetPoint" />
            <Array as="points">
              <mxPoint x="130" y="90" />
              <mxPoint x="290" y="90" />
            </Array>
          </mxGeometry>
        </mxCell>
        <mxCell id="VMoU9e_8NLVnZtbJIWxW-16" value="" style="curved=1;endArrow=classic;html=1;rounded=0;strokeWidth=3;strokeColor=#FF0000;" parent="1" edge="1">
          <mxGeometry width="50" height="50" relative="1" as="geometry">
            <mxPoint x="700" y="10" as="sourcePoint" />
            <mxPoint x="830" y="130" as="targetPoint" />
            <Array as="points">
              <mxPoint x="790" y="40" />
            </Array>
          </mxGeometry>
        </mxCell>
        <mxCell id="VMoU9e_8NLVnZtbJIWxW-17" value="" style="shape=cross;whiteSpace=wrap;html=1;strokeColor=none;rotation=45;fillColor=#FF0000;size=0.10294642843745336;" parent="1" vertex="1">
          <mxGeometry x="810" y="130" width="40" height="40" as="geometry" />
        </mxCell>
        <mxCell id="VMoU9e_8NLVnZtbJIWxW-18" value="" style="shape=cross;whiteSpace=wrap;html=1;strokeColor=none;rotation=45;fillColor=#FF0000;size=0.10294642843745336;" parent="1" vertex="1">
          <mxGeometry x="200" y="160" width="40" height="40" as="geometry" />
        </mxCell>
      </root>
    </mxGraphModel>
  </diagram>
</mxfile>
